<?xml version="1.0" standalone="no"?><!DOCTYPE svg PUBLIC "-//W3C//DTD SVG 1.1//EN" "http://www.w3.org/Graphics/SVG/1.1/DTD/svg11.dtd"><svg width="100%" height="100%" viewBox="0 0 578 155" version="1.1" xmlns="http://www.w3.org/2000/svg" xmlns:xlink="http://www.w3.org/1999/xlink" xml:space="preserve" style="fill-rule:evenodd;clip-rule:evenodd;stroke-linejoin:round;stroke-miterlimit:1.41421;"><path id="O" d="M98.989,33.331c-14.612,1.041 -32.091,16.71 -32.201,47.248c-0.058,16.146 9.66,47.672 28.99,49.579c15.658,1.544 39.244,-9.14 39.959,-51.691c0.408,-24.299 -16.408,-46.585 -36.748,-45.136ZM96.555,50.165c-6.297,0.062 -17.491,12.284 -15.499,29.783c1.941,17.059 13.966,32.274 23.271,28.844c7.671,-2.828 11.708,-20.236 11.394,-30.193c-0.323,-10.241 -7.36,-28.551 -19.166,-28.434Z" style="fill:#26b9d9;"/><path id="N" d="M143.715,40.955l-7.39,86.019l18.359,2.655l3.534,-65.651l27.935,63.817l19.429,-1.393l-0.895,-87.324l-20.734,-1.686l3.827,68.452l-21.951,-64.273l-22.114,-0.616Z" style="fill:#4ea88f;"/><path id="N1" d="M217.403,39.977l-7.39,86.019l18.359,2.654l3.534,-65.651l27.934,63.818l19.429,-1.393l-0.894,-87.324l-20.734,-1.686l3.827,68.451l-21.951,-64.272l-22.114,-0.616Z" style="fill:#884db3;"/><path id="e" d="M319.009,36.072c-10.544,0.095 -33.349,10.672 -34.277,43.59c-0.426,15.108 6.311,45.118 30.06,46.793c23.117,1.63 37.371,-18.456 37.371,-18.456l-11.282,-9.512c0,0 -13.547,18.355 -25.581,13.314c-19.878,-8.327 -16.639,-34.077 -16.639,-34.077l49.33,1.123c0.565,-7.889 -5.867,-42.982 -28.982,-42.775ZM298.999,72.736c0,0 0.641,-24.945 17.993,-23.442c15.682,1.359 13.53,24.319 13.53,24.319l-31.523,-0.877Z" style="fill:#e6a91a;"/><path id="(" d="M530.966,14.491c0,0 -24.019,13.447 -23.389,60.758c0.622,46.712 22.802,64.619 22.802,64.619l-12.366,15.006c0,0 -30.148,-22.552 -28.13,-81.727c1.774,-52.045 32.186,-72.709 32.186,-72.709l8.897,14.053Z" style="fill:#808080;"/><path id=")" d="M536.051,14.053c0,0 24.018,13.446 23.388,60.758c-0.622,46.711 -22.802,64.619 -22.802,64.619l12.367,15.006c0,0 30.147,-22.552 28.13,-81.727c-1.775,-52.045 -32.187,-72.709 -32.187,-72.709l-8.896,14.053Z" style="fill:#302d2d;"/><path id="C" d="M49.276,63.673c0,0 -10.707,-14.49 -17.101,-12.997c-14.984,3.502 -18.553,19.479 -18.146,30.593c0.958,26.222 13.167,32.22 19.759,31.307c12.366,-1.711 16.717,-15.066 16.717,-15.066l16.002,6.415c0,0 -6.444,19.506 -21.501,26.268c-6.484,2.911 -18.6,-0.936 -33.379,-17.727c-17.775,-20.196 -11.599,-49.965 -4.839,-61.771c0,0 0,0 0,0c5.106,-8.919 22.264,-18.52 30.94,-17.048c15.833,2.686 24.893,18.368 24.893,18.368l-13.345,11.658Z" style="fill:#597da6;"/><path id="C1" d="M401.419,63.231c0,0 -10.707,-14.49 -17.101,-12.996c-14.985,3.501 -18.553,19.478 -18.147,30.593c0.959,26.221 13.168,32.219 19.76,31.307c12.365,-1.711 16.716,-15.066 16.716,-15.066l16.002,6.415c0,0 -6.443,19.505 -21.501,26.267c-6.483,2.912 -18.6,-0.935 -33.378,-17.726c-17.775,-20.196 -11.599,-49.965 -4.839,-61.771c0,0 0,0 0,0c5.106,-8.919 22.263,-18.52 30.94,-17.048c15.833,2.686 24.893,18.367 24.893,18.367l-13.345,11.658Z" style="fill:#597da6;"/><path id="T" d="M419.582,37.266l68.022,2.401l-5.169,20.311l-27.458,-2.622l-3.665,69.489l-21.392,0.385l8.909,-71.835l-21.079,-1.119l1.832,-17.01Z" style="fill:#a1a659;"/></svg>