<?xml version="1.0" standalone="no"?><!DOCTYPE svg PUBLIC "-//W3C//DTD SVG 1.1//EN" "http://www.w3.org/Graphics/SVG/1.1/DTD/svg11.dtd"><svg width="100%" height="100%" viewBox="0 0 357 155" version="1.1" xmlns="http://www.w3.org/2000/svg" xmlns:xlink="http://www.w3.org/1999/xlink" xml:space="preserve" style="fill-rule:evenodd;clip-rule:evenodd;stroke-linejoin:round;stroke-miterlimit:1.41421;"><path id="e" d="M34.296,37.589c-10.544,0.095 -33.349,10.672 -34.277,43.59c-0.426,15.108 6.311,45.118 30.06,46.793c23.116,1.63 37.371,-18.456 37.371,-18.456l-11.283,-9.512c0,0 -13.546,18.356 -25.58,13.314c-19.878,-8.327 -16.639,-34.077 -16.639,-34.077l49.33,1.123c0.565,-7.888 -5.868,-42.982 -28.982,-42.775ZM14.286,74.253c0,0 0.641,-24.945 17.993,-23.442c15.682,1.359 13.53,24.319 13.53,24.319l-31.523,-0.877Z" style="fill:#59a67d;"/><path id="(" d="M309.823,14.491c0,0 -24.018,13.447 -23.388,60.758c0.622,46.712 22.802,64.619 22.802,64.619l-12.367,15.006c0,0 -30.147,-22.552 -28.13,-81.727c1.775,-52.045 32.187,-72.709 32.187,-72.709l8.896,14.053Z" style="fill:#808080;"/><path id=")" d="M314.908,14.053c0,0 24.019,13.446 23.389,60.758c-0.622,46.711 -22.802,64.619 -22.802,64.619l12.366,15.006c0,0 30.148,-22.552 28.13,-81.727c-1.774,-52.045 -32.186,-72.709 -32.186,-72.709l-8.897,14.053Z" style="fill:#302d2d;"/><path id="T" d="M196.563,37.801l68.021,2.401l-5.168,20.311l-27.458,-2.622l-3.666,69.489l-21.391,0.385l8.908,-71.835l-21.079,-1.119l1.833,-17.01Z" style="fill:#a1a659;"/><path id="M" d="M78.037,43.184l-10.503,86.298l19.888,-0.44l5.481,-64.833l15.653,55.979l12.867,-61.937l8.139,70.534l22.142,-0.861l-15.269,-87.195l-17.504,2.199l-11.438,47.15l-13.729,-44.841l-15.727,-2.053Z" style="fill:#cc339f;"/><g id="i"><path d="M184.775,59.694l-18.169,2.13c-3.176,33.287 -7.824,56.295 -10.242,66.398l25.313,-0.671l3.098,-67.857Z" style="fill:#c33;"/><path d="M179.092,37.698c-8.957,-0.48 -15.965,3.948 -16.863,6.947c-1.243,4.154 3.31,11.072 14.279,11.199c10.398,0.121 13.63,-5.734 13.692,-9.403c0.061,-3.669 -3.235,-8.321 -11.108,-8.743Z" style="fill:#c33;"/></g></svg>