<?xml version="1.0" standalone="no"?><!DOCTYPE svg PUBLIC "-//W3C//DTD SVG 1.1//EN" "http://www.w3.org/Graphics/SVG/1.1/DTD/svg11.dtd"><svg width="100%" height="100%" viewBox="0 0 765 155" version="1.1" xmlns="http://www.w3.org/2000/svg" xmlns:xlink="http://www.w3.org/1999/xlink" xml:space="preserve" style="fill-rule:evenodd;clip-rule:evenodd;stroke-linejoin:round;stroke-miterlimit:1.41421;"><path id="e" d="M34.296,36.967c-10.544,0.095 -33.349,10.671 -34.277,43.59c-0.426,15.107 6.311,45.117 30.06,46.792c23.116,1.63 37.371,-18.456 37.371,-18.456l-11.283,-9.512c0,0 -13.546,18.356 -25.58,13.315c-19.878,-8.328 -16.639,-34.078 -16.639,-34.078l49.33,1.123c0.565,-7.888 -5.868,-42.982 -28.982,-42.774ZM14.286,73.63c0,0 0.641,-24.944 17.993,-23.441c15.682,1.358 13.53,24.318 13.53,24.318l-31.523,-0.877Z" style="fill:#59a67d;"/><path id="e1" d="M641.246,37.056c-10.544,0.095 -33.349,10.671 -34.277,43.59c-0.426,15.107 6.311,45.117 30.06,46.792c23.116,1.63 37.37,-18.456 37.37,-18.456l-11.282,-9.512c0,0 -13.546,18.356 -25.58,13.314c-19.879,-8.327 -16.639,-34.077 -16.639,-34.077l49.33,1.123c0.565,-7.888 -5.868,-42.982 -28.982,-42.774ZM621.236,73.719c0,0 0.641,-24.944 17.993,-23.441c15.682,1.358 13.53,24.318 13.53,24.318l-31.523,-0.877Z" style="fill:#59a67d;"/><path id="e2" d="M370.329,37.984c-10.544,0.094 -33.349,10.671 -34.278,43.59c-0.426,15.107 6.312,45.117 30.06,46.792c23.117,1.63 37.371,-18.456 37.371,-18.456l-11.282,-9.512c0,0 -13.546,18.356 -25.581,13.314c-19.878,-8.327 -16.638,-34.077 -16.638,-34.077l49.33,1.123c0.565,-7.888 -5.868,-42.982 -28.982,-42.774ZM350.319,74.647c0,0 0.641,-24.945 17.993,-23.441c15.682,1.358 13.529,24.318 13.529,24.318l-31.522,-0.877Z" style="fill:#59a67d;"/><path d="M411.129,33.369l-5.01,95.28c0,0 33.409,1.307 50.84,-17.707c18.239,-19.895 14.276,-52.667 3.304,-62.411c-21.424,-19.029 -49.134,-15.162 -49.134,-15.162ZM428.339,44.911l-4.486,67.421c0,0 24.726,-0.511 29.144,-24.822c6.496,-35.749 -24.658,-42.599 -24.658,-42.599Z" style="fill:#40bfa9;"/><path id="C" d="M590.106,61.627c0,0 -10.708,-14.49 -17.102,-12.996c-14.984,3.501 -18.553,19.478 -18.146,30.592c0.959,26.222 13.167,32.22 19.759,31.308c12.366,-1.712 16.717,-15.067 16.717,-15.067l16.002,6.415c0,0 -6.444,19.506 -21.501,26.268c-6.484,2.911 -18.6,-0.936 -33.379,-17.727c-17.775,-20.196 -11.599,-49.964 -4.839,-61.771c0,0 0,0 0,0c5.106,-8.918 22.264,-18.52 30.94,-17.048c15.833,2.686 24.893,18.368 24.893,18.368l-13.344,11.658Z" style="fill:#597da6;"/><path id="T" d="M196.563,37.178l68.021,2.402l-5.168,20.311l-27.458,-2.622l-3.666,69.489l-21.391,0.384l8.908,-71.835l-21.079,-1.118l1.833,-17.011Z" style="fill:#a1a659;"/><path id="M" d="M78.037,42.562l-10.503,86.297l19.888,-0.44l5.481,-64.833l15.653,55.98l12.867,-61.938l8.139,70.534l22.142,-0.86l-15.269,-87.196l-17.504,2.199l-11.438,47.15l-13.729,-44.84l-15.727,-2.053Z" style="fill:#cc339f;"/><g id="i"><path d="M184.775,59.071l-18.169,2.13c-3.176,33.288 -7.824,56.295 -10.242,66.398l25.313,-0.67l3.098,-67.858Z" style="fill:#c33;"/><path d="M179.092,37.075c-8.957,-0.48 -15.965,3.949 -16.863,6.947c-1.243,4.155 3.31,11.072 14.279,11.2c10.398,0.12 13.63,-5.735 13.692,-9.404c0.061,-3.669 -3.235,-8.321 -11.108,-8.743Z" style="fill:#c33;"/></g><path id="R" d="M274.608,6.342l-13.702,121.254l26.957,-0.446l1.898,-44.651l3.991,0.252l17.553,43.561l32.008,0.726l-35.272,-45.823c0,0 20.814,-1.373 32.118,-33.711c2.668,-7.633 0.738,-27.306 -18.195,-35.581c-23.467,-10.256 -47.356,-5.581 -47.356,-5.581ZM289.956,74.071l2.708,-56.901c0,0 28.452,0.962 25.366,28.52c-3.444,30.766 -28.074,28.381 -28.074,28.381Z" style="fill:#337bcc;"/><path id="(" d="M718.587,14.491c0,0 -24.019,13.447 -23.389,60.758c0.622,46.712 22.802,64.619 22.802,64.619l-12.366,15.006c0,0 -30.147,-22.552 -28.13,-81.727c1.774,-52.045 32.186,-72.709 32.186,-72.709l8.897,14.053Z" style="fill:#808080;"/><path id=")" d="M723.672,14.053c0,0 24.018,13.446 23.388,60.758c-0.622,46.711 -22.801,64.619 -22.801,64.619l12.366,15.006c0,0 30.147,-22.552 28.13,-81.727c-1.775,-52.045 -32.187,-72.709 -32.187,-72.709l-8.896,14.053Z" style="fill:#302d2d;"/><path id="U" d="M535.792,40.722c0,0 2.427,49.918 -1.872,64.419c-3.284,11.077 -16.042,23.226 -25.636,23.326c-22.933,0.238 -26.946,-9.316 -31.889,-21.055c-5.833,-13.85 -4.204,-66.489 -4.204,-66.489l18.445,-1.236c0,0 0.258,38.283 0.916,50.116c0.804,14.448 2.622,23.309 12.928,22.967c4.475,-0.149 14.993,-3.414 14.979,-22.13c-0.016,-22.05 -2.45,-50.095 -2.45,-50.095l18.783,0.177Z" style="fill:#40a9bf;"/></svg>