<?xml version="1.0" standalone="no"?><!DOCTYPE svg PUBLIC "-//W3C//DTD SVG 1.1//EN" "http://www.w3.org/Graphics/SVG/1.1/DTD/svg11.dtd"><svg width="100%" height="100%" viewBox="0 0 590 155" version="1.1" xmlns="http://www.w3.org/2000/svg" xmlns:xlink="http://www.w3.org/1999/xlink" xml:space="preserve" style="fill-rule:evenodd;clip-rule:evenodd;stroke-linejoin:round;stroke-miterlimit:1.41421;"><path id="T" d="M268.573,36.259l68.021,2.401l-5.168,20.311l-27.458,-2.622l-3.666,69.489l-21.391,0.385l8.908,-71.836l-21.079,-1.118l1.833,-17.01Z" style="fill:#a1a659;"/><g id="i"><path d="M361.851,58.358l-18.168,2.13c-3.176,33.288 -7.825,56.295 -10.243,66.398l25.314,-0.67l3.097,-67.858Z" style="fill:#c33;"/><path d="M356.169,36.362c-8.957,-0.48 -15.966,3.949 -16.863,6.947c-1.244,4.154 3.309,11.072 14.278,11.2c10.399,0.12 13.631,-5.735 13.692,-9.404c0.061,-3.669 -3.235,-8.321 -11.107,-8.743Z" style="fill:#c33;"/></g><path id="(" d="M543.036,14.491c0,0 -24.018,13.447 -23.388,60.758c0.622,46.712 22.801,64.619 22.801,64.619l-12.366,15.006c0,0 -30.147,-22.552 -28.13,-81.727c1.775,-52.045 32.187,-72.709 32.187,-72.709l8.896,14.053Z" style="fill:#808080;"/><path id=")" d="M548.121,14.053c0,0 24.019,13.446 23.389,60.758c-0.622,46.711 -22.802,64.619 -22.802,64.619l12.366,15.006c0,0 30.147,-22.552 28.13,-81.727c-1.774,-52.045 -32.186,-72.709 -32.186,-72.709l-8.897,14.053Z" style="fill:#302d2d;"/><path id="e" d="M34.296,35.976c-10.544,0.095 -33.349,10.672 -34.277,43.59c-0.426,15.108 6.311,45.118 30.06,46.792c23.116,1.631 37.371,-18.455 37.371,-18.455l-11.283,-9.512c0,0 -13.546,18.355 -25.58,13.314c-19.878,-8.327 -16.639,-34.077 -16.639,-34.077l49.33,1.123c0.565,-7.889 -5.868,-42.983 -28.982,-42.775ZM14.286,72.64c0,0 0.641,-24.945 17.993,-23.442c15.682,1.358 13.53,24.319 13.53,24.319l-31.523,-0.877Z" style="fill:#59a67d;"/><path id="e1" d="M157.747,35.975c-10.543,0.095 -33.348,10.672 -34.277,43.59c-0.426,15.108 6.312,45.118 30.06,46.793c23.117,1.63 37.371,-18.456 37.371,-18.456l-11.282,-9.512c0,0 -13.546,18.355 -25.581,13.314c-19.878,-8.327 -16.639,-34.077 -16.639,-34.077l49.331,1.123c0.565,-7.889 -5.868,-42.982 -28.983,-42.775ZM137.737,72.639c0,0 0.641,-24.945 17.994,-23.442c15.682,1.359 13.529,24.319 13.529,24.319l-31.523,-0.877Z" style="fill:#33b1cc;"/><path id="e2" d="M465.178,36.356c-10.544,0.094 -33.349,10.671 -34.277,43.59c-0.427,15.107 6.311,45.117 30.06,46.792c23.116,1.63 37.37,-18.456 37.37,-18.456l-11.282,-9.512c0,0 -13.546,18.356 -25.58,13.314c-19.879,-8.327 -16.639,-34.077 -16.639,-34.077l49.33,1.123c0.565,-7.888 -5.868,-42.982 -28.982,-42.774ZM445.168,73.019c0,0 0.641,-24.945 17.993,-23.442c15.682,1.359 13.529,24.319 13.529,24.319l-31.522,-0.877Z" style="fill:#59a67d;"/><path id="V" d="M80.583,34.843l-18.764,6.391l25.731,85.407l17.285,-0.065l22.46,-90.747l-18.123,-0.411l-13.013,65.69l-15.576,-66.265Z" style="fill:#407cbf;"/><path id="N" d="M200.957,39.235l-7.39,86.02l18.359,2.654l3.534,-65.651l27.934,63.817l19.429,-1.392l-0.894,-87.324l-20.734,-1.687l3.827,68.452l-21.952,-64.273l-22.113,-0.616Z" style="fill:#884db3;"/><path id="Z" d="M394.362,71.606l16.263,-21.781l-33.73,7.284l0.446,-18.714l50.388,-3.73l3.937,15.893l-18.826,21.612l11.621,0.354l-1.594,8.831l-17.017,-1.161l-23.535,27.017l40.297,-3.698l2.167,20.754l-54.866,1.945l-4.718,-15.542l23.622,-31.638l-14.776,-1.009l0.272,-7.029l20.049,0.612Z" style="fill:#1a7ae6;"/></svg>