<?xml version="1.0" standalone="no"?><!DOCTYPE svg PUBLIC "-//W3C//DTD SVG 1.1//EN" "http://www.w3.org/Graphics/SVG/1.1/DTD/svg11.dtd"><svg width="100%" height="100%" viewBox="0 0 306 155" version="1.1" xmlns="http://www.w3.org/2000/svg" xmlns:xlink="http://www.w3.org/1999/xlink" xml:space="preserve" style="fill-rule:evenodd;clip-rule:evenodd;stroke-linejoin:round;stroke-miterlimit:1.41421;"><path id="O" d="M32.202,33.066c-14.613,1.041 -32.092,16.709 -32.202,47.247c-0.058,16.147 9.661,47.673 28.99,49.579c15.658,1.545 39.244,-9.139 39.959,-51.69c0.409,-24.299 -16.408,-46.586 -36.747,-45.136ZM29.768,49.9c-6.298,0.062 -17.491,12.283 -15.5,29.783c1.941,17.059 13.967,32.274 23.272,28.844c7.671,-2.828 11.707,-20.237 11.393,-30.194c-0.323,-10.24 -7.36,-28.55 -19.165,-28.433Z" style="fill:#bf409a;"/><path id="F" d="M71.115,33.3l12.013,96.243l25.955,-0.62l-10.899,-44.774l21.212,-0.04l-0.574,-17.732l-24.118,2.664l-5.02,-19.865l47.697,-0.395l0.069,-23.474l-66.335,7.993Z" style="fill:#0dcaf2;"/><path id="F1" d="M142.514,26.93l12.782,102.404l27.617,-0.66l-11.596,-47.64l22.569,-0.043l-0.61,-18.867l-25.662,2.835l-5.342,-21.137l50.751,-0.42l0.073,-24.977l-70.582,8.505Z" style="fill:#407cbf;"/><path id="(" d="M259.261,14.491c0,0 -24.019,13.447 -23.389,60.758c0.622,46.712 22.802,64.619 22.802,64.619l-12.366,15.006c0,0 -30.147,-22.552 -28.13,-81.727c1.774,-52.045 32.186,-72.709 32.186,-72.709l8.897,14.053Z" style="fill:#808080;"/><path id=")" d="M264.346,14.053c0,0 24.018,13.446 23.388,60.758c-0.622,46.711 -22.801,64.619 -22.801,64.619l12.366,15.006c0,0 30.147,-22.552 28.13,-81.727c-1.775,-52.045 -32.187,-72.709 -32.187,-72.709l-8.896,14.053Z" style="fill:#302d2d;"/></svg>