<?xml version="1.0" standalone="no"?><!DOCTYPE svg PUBLIC "-//W3C//DTD SVG 1.1//EN" "http://www.w3.org/Graphics/SVG/1.1/DTD/svg11.dtd"><svg width="100%" height="100%" viewBox="0 0 233 155" version="1.1" xmlns="http://www.w3.org/2000/svg" xmlns:xlink="http://www.w3.org/1999/xlink" xml:space="preserve" style="fill-rule:evenodd;clip-rule:evenodd;stroke-linejoin:round;stroke-miterlimit:1.41421;"><path id="O" d="M32.202,36.793c-14.613,1.041 -32.092,16.71 -32.202,47.247c-0.058,16.147 9.661,47.673 28.99,49.58c15.658,1.544 39.244,-9.14 39.959,-51.691c0.409,-24.299 -16.408,-46.586 -36.747,-45.136ZM29.768,53.627c-6.298,0.062 -17.491,12.283 -15.5,29.783c1.941,17.059 13.967,32.274 23.272,28.844c7.671,-2.828 11.707,-20.237 11.393,-30.193c-0.323,-10.241 -7.36,-28.551 -19.165,-28.434Z" style="fill:#0dcaf2;"/><path id="N" d="M78.307,43.868l-7.391,86.019l18.36,2.654l3.533,-65.651l27.935,63.818l19.429,-1.393l-0.894,-87.324l-20.735,-1.686l3.828,68.451l-21.952,-64.272l-22.113,-0.616Z" style="fill:#1a7ae6;"/><path id="(" d="M186.187,14.491c0,0 -24.018,13.447 -23.388,60.758c0.621,46.712 22.801,64.619 22.801,64.619l-12.366,15.006c0,0 -30.147,-22.552 -28.13,-81.727c1.774,-52.045 32.187,-72.709 32.187,-72.709l8.896,14.053Z" style="fill:#808080;"/><path id=")" d="M191.272,14.053c0,0 24.019,13.446 23.389,60.758c-0.622,46.711 -22.802,64.619 -22.802,64.619l12.366,15.006c0,0 30.147,-22.552 28.13,-81.727c-1.774,-52.045 -32.187,-72.709 -32.187,-72.709l-8.896,14.053Z" style="fill:#302d2d;"/></svg>