<?xml version="1.0" standalone="no"?><!DOCTYPE svg PUBLIC "-//W3C//DTD SVG 1.1//EN" "http://www.w3.org/Graphics/SVG/1.1/DTD/svg11.dtd"><svg width="100%" height="100%" viewBox="0 0 371 155" version="1.1" xmlns="http://www.w3.org/2000/svg" xmlns:xlink="http://www.w3.org/1999/xlink" xml:space="preserve" style="fill-rule:evenodd;clip-rule:evenodd;stroke-linejoin:round;stroke-miterlimit:1.41421;"><path id="O" d="M32.202,30.493c-14.613,1.041 -32.092,16.71 -32.202,47.248c-0.058,16.146 9.661,47.672 28.99,49.579c15.658,1.544 39.244,-9.139 39.959,-51.69c0.409,-24.3 -16.408,-46.586 -36.747,-45.137ZM29.768,47.327c-6.298,0.063 -17.491,12.284 -15.5,29.783c1.941,17.06 13.967,32.275 23.272,28.844c7.671,-2.828 11.707,-20.236 11.393,-30.193c-0.323,-10.241 -7.36,-28.551 -19.165,-28.434Z" style="fill:#4d7db3;"/><path id="N" d="M77.236,41.218l-7.391,86.02l18.36,2.654l3.533,-65.651l27.935,63.818l19.429,-1.393l-0.894,-87.324l-20.735,-1.687l3.828,68.452l-21.952,-64.273l-22.113,-0.616Z" style="fill:#884db3;"/><path id="e" d="M244.432,38.3c-10.544,0.094 -33.349,10.671 -34.277,43.59c-0.427,15.107 6.311,45.117 30.06,46.792c23.116,1.63 37.37,-18.456 37.37,-18.456l-11.282,-9.512c0,0 -13.546,18.356 -25.58,13.314c-19.879,-8.327 -16.639,-34.077 -16.639,-34.077l49.33,1.123c0.565,-7.888 -5.868,-42.982 -28.982,-42.774ZM224.422,74.963c0,0 0.641,-24.945 17.993,-23.442c15.682,1.359 13.529,24.319 13.529,24.319l-31.522,-0.877Z" style="fill:#59a67d;"/><path id="(" d="M324.024,14.491c0,0 -24.018,13.447 -23.388,60.758c0.622,46.712 22.801,64.619 22.801,64.619l-12.366,15.006c0,0 -30.147,-22.552 -28.13,-81.727c1.775,-52.045 32.187,-72.709 32.187,-72.709l8.896,14.053Z" style="fill:#808080;"/><path id=")" d="M329.109,14.053c0,0 24.019,13.446 23.389,60.758c-0.622,46.711 -22.802,64.619 -22.802,64.619l12.366,15.006c0,0 30.147,-22.552 28.13,-81.727c-1.774,-52.045 -32.187,-72.709 -32.187,-72.709l-8.896,14.053Z" style="fill:#302d2d;"/><path id="C" d="M192.796,64.651c0,0 -10.707,-14.49 -17.101,-12.996c-14.985,3.501 -18.553,19.478 -18.147,30.592c0.959,26.222 13.168,32.22 19.76,31.308c12.365,-1.711 16.716,-15.067 16.716,-15.067l16.002,6.415c0,0 -6.443,19.506 -21.501,26.268c-6.483,2.912 -18.6,-0.936 -33.378,-17.727c-17.775,-20.195 -11.599,-49.964 -4.839,-61.771c0,0 0,0 0,0c5.106,-8.918 22.263,-18.52 30.94,-17.048c15.833,2.686 24.893,18.368 24.893,18.368l-13.345,11.658Z" style="fill:#d926a5;"/></svg>